<svg width="60" height="60" viewBox="0 0 60 60" fill="none" xmlns="http://www.w3.org/2000/svg">
<path d="M35.0138 6.97266H25.0024C24.4779 6.97266 24.0527 7.39781 24.0527 7.92211V9.24891C24.0527 9.7732 24.4779 10.1984 25.0024 10.1984H35.0138C35.5383 10.1984 35.9634 9.7732 35.9634 9.24891V7.92211C35.9632 7.39781 35.5381 6.97266 35.0138 6.97266V6.97266Z" fill="#FCDD86"/>
<path d="M32.4499 6.97122V6.08458C32.4499 4.73645 31.357 3.6438 30.0091 3.6438C28.661 3.6438 27.5684 4.73669 27.5684 6.08458V6.97098H32.4499V6.97122Z" fill="#F5C84C"/>
<path d="M45.7802 8.64258H35.963V9.24844C35.963 9.77273 35.5378 10.1981 35.0133 10.1981H25.002C24.4774 10.1981 24.0523 9.77297 24.0523 9.24844V8.64258H14.2348C12.9263 8.64258 11.8652 9.70359 11.8652 11.0121V57.0436C11.8652 58.3521 12.9263 59.4131 14.2348 59.4131H45.7802C47.0888 59.4131 48.1498 58.3521 48.1498 57.0436V11.0121C48.1498 9.70359 47.0888 8.64258 45.7802 8.64258V8.64258Z" fill="#5290DB"/>
<path d="M44.7462 12.9089H15.2756C14.7052 12.9089 14.2383 13.3756 14.2383 13.9463V48.386L22.8973 57.045H44.7462C45.3167 57.045 45.7835 56.5784 45.7835 56.0077V13.946C45.7833 13.3756 45.3167 12.9089 44.7462 12.9089V12.9089Z" fill="#EDF4FC"/>
<path d="M14.2383 48.3838H20.7771C21.9431 48.3838 22.8973 49.3379 22.8973 50.5039V57.0427L14.2383 48.3838Z" fill="#70D6F9"/>
<path d="M36.1534 24.137H27.2314C26.9078 24.137 26.6455 23.8747 26.6455 23.551C26.6455 23.2274 26.9078 22.9651 27.2314 22.9651H36.1534C36.4771 22.9651 36.7393 23.2274 36.7393 23.551C36.7393 23.8747 36.4771 24.137 36.1534 24.137Z" fill="black"/>
<path d="M34.4691 18.9221H25.5469C25.2232 18.9221 24.9609 18.6599 24.9609 18.3362C24.9609 18.0125 25.2232 17.7502 25.5469 17.7502H34.4691C34.7927 17.7502 35.055 18.0125 35.055 18.3362C35.055 18.6599 34.7927 18.9221 34.4691 18.9221Z" fill="black"/>
<path d="M36.1534 33.1055H27.2314C26.9078 33.1055 26.6455 32.8432 26.6455 32.5195C26.6455 32.1959 26.9078 31.9336 27.2314 31.9336H36.1534C36.4771 31.9336 36.7393 32.1959 36.7393 32.5195C36.7393 32.8432 36.4771 33.1055 36.1534 33.1055Z" fill="black"/>
<path d="M36.1534 42.074H27.2314C26.9078 42.074 26.6455 41.8117 26.6455 41.488C26.6455 41.1644 26.9078 40.9021 27.2314 40.9021H36.1534C36.4771 40.9021 36.7393 41.1644 36.7393 41.488C36.7393 41.8117 36.4771 42.074 36.1534 42.074Z" fill="black"/>
<path d="M23.0742 21.5186H19.0678C18.3907 21.5186 17.8418 22.0675 17.8418 22.7446V26.3591C17.8418 27.0362 18.3907 27.5851 19.0678 27.5851H23.0742C23.7513 27.5851 24.3002 27.0362 24.3002 26.3591V22.7446C24.3002 22.0675 23.7513 21.5186 23.0742 21.5186Z" fill="#87D147"/>
<path d="M23.0742 30.4871H19.0678C18.3907 30.4871 17.8418 31.036 17.8418 31.7131V35.3276C17.8418 36.0047 18.3907 36.5536 19.0678 36.5536H23.0742C23.7513 36.5536 24.3002 36.0047 24.3002 35.3276V31.7131C24.3002 31.036 23.7513 30.4871 23.0742 30.4871Z" fill="#87D147"/>
<path d="M23.0742 39.459H19.0678C18.3907 39.459 17.8418 40.008 17.8418 40.6851V44.2996C17.8418 44.9767 18.3907 45.5256 19.0678 45.5256H23.0742C23.7513 45.5256 24.3002 44.9767 24.3002 44.2996V40.6851C24.3002 40.0077 23.7513 39.459 23.0742 39.459Z" fill="#C7D7E5"/>
<path d="M42.1768 26.543H27.2314C26.9078 26.543 26.6455 26.2807 26.6455 25.957C26.6455 25.6334 26.9078 25.3711 27.2314 25.3711H42.1768C42.5005 25.3711 42.7628 25.6334 42.7628 25.957C42.7628 26.2807 42.5003 26.543 42.1768 26.543Z" fill="black"/>
<path d="M42.1768 35.5151H27.2314C26.9078 35.5151 26.6455 35.2529 26.6455 34.9292C26.6455 34.6055 26.9078 34.3433 27.2314 34.3433H42.1768C42.5005 34.3433 42.7628 34.6055 42.7628 34.9292C42.7628 35.2529 42.5003 35.5151 42.1768 35.5151Z" fill="black"/>
<path d="M42.1768 44.4836H27.2314C26.9078 44.4836 26.6455 44.2214 26.6455 43.8977C26.6455 43.574 26.9078 43.3118 27.2314 43.3118H42.1768C42.5005 43.3118 42.7628 43.574 42.7628 43.8977C42.7628 44.2214 42.5003 44.4836 42.1768 44.4836Z" fill="black"/>
<path d="M23.074 28.1706H19.0676C18.0684 28.1706 17.2559 27.3578 17.2559 26.3589V22.7443C17.2559 21.7452 18.0687 20.9326 19.0676 20.9326H23.074C24.0731 20.9326 24.8859 21.7454 24.8859 22.7443V26.3589C24.8859 27.358 24.0729 28.1706 23.074 28.1706ZM19.0676 22.1045C18.7146 22.1045 18.4277 22.3916 18.4277 22.7443V26.3589C18.4277 26.7118 18.7148 26.9987 19.0676 26.9987H23.074C23.4269 26.9987 23.7141 26.7116 23.7141 26.3589V22.7443C23.7141 22.3914 23.4267 22.1045 23.074 22.1045H19.0676Z" fill="black"/>
<path d="M20.7036 25.9937C20.5536 25.9937 20.4038 25.9365 20.2892 25.8222L19.3172 24.8502C19.0883 24.6212 19.0883 24.2505 19.3172 24.0217C19.5462 23.793 19.917 23.7927 20.1458 24.0217L20.7036 24.5795L21.9559 23.3273C22.1848 23.0983 22.5556 23.0983 22.7844 23.3273C23.0131 23.5562 23.0134 23.927 22.7844 24.1558L21.118 25.8222C21.0033 25.9365 20.8536 25.9937 20.7036 25.9937V25.9937Z" fill="black"/>
<path d="M23.074 37.1391H19.0676C18.0684 37.1391 17.2559 36.3263 17.2559 35.3274V31.7128C17.2559 30.7137 18.0687 29.9011 19.0676 29.9011H23.074C24.0731 29.9011 24.8859 30.7139 24.8859 31.7128V35.3274C24.8859 36.3263 24.0729 37.1391 23.074 37.1391ZM19.0676 31.0728C18.7146 31.0728 18.4277 31.3599 18.4277 31.7126V35.3271C18.4277 35.6801 18.7148 35.967 19.0676 35.967H23.074C23.4269 35.967 23.7141 35.6799 23.7141 35.3271V31.7126C23.7141 31.3596 23.4267 31.0728 23.074 31.0728H19.0676Z" fill="black"/>
<path d="M20.7036 34.9659C20.5536 34.9659 20.4038 34.9087 20.2892 34.7943L19.3172 33.8224C19.0883 33.5934 19.0883 33.2226 19.3172 32.9939C19.5462 32.7651 19.917 32.7649 20.1458 32.9939L20.7036 33.5517L21.9559 32.2994C22.1848 32.0704 22.5556 32.0704 22.7844 32.2994C23.0131 32.5284 23.0134 32.8992 22.7844 33.1279L21.118 34.7943C21.0033 34.9087 20.8536 34.9659 20.7036 34.9659V34.9659Z" fill="black"/>
<path d="M23.074 46.1111H19.0676C18.0684 46.1111 17.2559 45.2983 17.2559 44.2994V40.6848C17.2559 39.6857 18.0687 38.8731 19.0676 38.8731H23.074C24.0731 38.8731 24.8859 39.6859 24.8859 40.6848V44.2994C24.8859 45.2985 24.0729 46.1111 23.074 46.1111ZM19.0676 40.045C18.7146 40.045 18.4277 40.3321 18.4277 40.6848V44.2994C18.4277 44.6524 18.7148 44.9392 19.0676 44.9392H23.074C23.4269 44.9392 23.7141 44.6521 23.7141 44.2994V40.6848C23.7141 40.3319 23.4267 40.045 23.074 40.045H19.0676Z" fill="black"/>
<path d="M35.0137 10.7845H25.0024C24.1559 10.7845 23.4668 10.0957 23.4668 9.2489V7.92234C23.4668 7.07578 24.1556 6.38672 25.0024 6.38672H35.0137C35.8603 6.38672 36.5494 7.07555 36.5494 7.92234V9.2489C36.5494 10.0955 35.8605 10.7845 35.0137 10.7845ZM25.0027 7.55859C24.8023 7.55859 24.6389 7.72172 24.6389 7.92234V9.2489C24.6389 9.44929 24.802 9.61265 25.0027 9.61265H35.014C35.2144 9.61265 35.3777 9.44953 35.3777 9.2489V7.92234C35.3777 7.72195 35.2146 7.55859 35.014 7.55859H25.0027Z" fill="black"/>
<path d="M33.3304 15.4513H26.6804C25.6918 15.4513 24.8877 14.6472 24.8877 13.6588V10.3271C24.8877 10.0035 25.15 9.74121 25.4736 9.74121C25.7973 9.74121 26.0596 10.0035 26.0596 10.3271V13.6588C26.0596 14.001 26.338 14.2794 26.6804 14.2794H33.3304C33.6728 14.2794 33.9512 14.001 33.9512 13.6588V10.3344C33.9512 10.0107 34.2135 9.74848 34.5372 9.74848C34.8608 9.74848 35.1231 10.0107 35.1231 10.3344V13.6588C35.1231 14.6472 34.3187 15.4513 33.3304 15.4513Z" fill="black"/>
<path d="M27.5684 7.40402C27.2447 7.40402 26.9824 7.14175 26.9824 6.81808V6.08847C26.9824 4.41949 28.3402 3.06152 30.0091 3.06152C31.6781 3.06152 33.0359 4.41926 33.0359 6.08824V6.79863C33.0359 7.1223 32.7736 7.38457 32.4499 7.38457C32.1263 7.38457 31.864 7.1223 31.864 6.79863V6.08824C31.864 5.06543 31.032 4.2334 30.0091 4.2334C28.9863 4.2334 28.1543 5.06566 28.1543 6.08847V6.81808C28.1543 7.14175 27.892 7.40402 27.5684 7.40402V7.40402Z" fill="black"/>
<path d="M45.7803 59.9988H14.2348C12.6052 59.9988 11.2793 58.673 11.2793 57.0434V11.0121C11.2793 9.3825 12.6052 8.05664 14.2348 8.05664H23.9625C24.2862 8.05664 24.5485 8.31891 24.5485 8.64258C24.5485 8.96625 24.2862 9.22852 23.9625 9.22852H14.2348C13.2513 9.22852 12.4512 10.0287 12.4512 11.0121V57.0434C12.4512 58.0268 13.2513 58.827 14.2348 58.827H45.7803C46.7637 58.827 47.5639 58.0268 47.5639 57.0434V11.0121C47.5639 10.0287 46.7637 9.22852 45.7803 9.22852H36.1111C35.7875 9.22852 35.5252 8.96625 35.5252 8.64258C35.5252 8.31891 35.7875 8.05664 36.1111 8.05664H45.7803C47.4099 8.05664 48.7357 9.3825 48.7357 11.0121V57.0434C48.7357 58.673 47.4099 59.9988 45.7803 59.9988V59.9988Z" fill="black"/>
<path d="M44.746 57.631H22.897C22.7416 57.631 22.5926 57.5691 22.4827 57.4594L13.8239 48.8004C13.714 48.6905 13.6523 48.5417 13.6523 48.386V13.946C13.6523 13.0512 14.3803 12.323 15.2756 12.323H44.746C45.641 12.323 46.3695 13.051 46.3695 13.946V56.0077C46.3695 56.9027 45.641 57.631 44.746 57.631ZM23.1399 56.4591H44.7462C44.9953 56.4591 45.1978 56.2566 45.1978 56.0077V13.946C45.1978 13.6971 44.9953 13.4949 44.7462 13.4949H15.2756C15.0267 13.4949 14.8242 13.6971 14.8242 13.946V48.1432L23.1399 56.4591Z" fill="black"/>
<path d="M22.8934 57.4896C22.5697 57.4896 22.3075 57.2274 22.3075 56.9037V50.5076C22.3075 49.6617 21.6191 48.9733 20.7732 48.9733H14.3406C14.0169 48.9733 13.7546 48.7111 13.7546 48.3874C13.7546 48.0637 14.0169 47.8015 14.3406 47.8015H20.7732C22.2653 47.8015 23.4793 49.0155 23.4793 50.5076V56.9037C23.4793 57.2274 23.2171 57.4896 22.8934 57.4896Z" fill="black"/>
<path d="M43.063 3.48791C42.0088 3.2915 41.1779 2.47775 40.9775 1.4451C40.9675 1.3933 40.895 1.3933 40.885 1.4451C40.6846 2.47775 39.8537 3.29174 38.7995 3.48791C38.7465 3.49775 38.7465 3.56877 38.7995 3.57861C39.8537 3.77502 40.6846 4.58877 40.885 5.62166C40.895 5.67345 40.9675 5.67345 40.9775 5.62166C41.1779 4.589 42.0088 3.77502 43.063 3.57861C43.116 3.56877 43.116 3.49799 43.063 3.48791Z" fill="#F5C84C"/>
<path d="M52.6854 41.4717C51.9797 41.3402 51.4236 40.7953 51.2893 40.1041C51.2825 40.0695 51.234 40.0695 51.2274 40.1041C51.0933 40.7955 50.5369 41.3405 49.8312 41.4717C49.7958 41.4783 49.7958 41.5259 49.8312 41.5324C50.5369 41.6639 51.0931 42.2088 51.2274 42.9C51.2342 42.9347 51.2827 42.9347 51.2893 42.9C51.4233 42.2086 51.9797 41.6637 52.6854 41.5324C52.7208 41.5259 52.7208 41.4785 52.6854 41.4717Z" fill="#FC657E"/>
<path d="M5.03191 55.3607H5.57801V54.8146C5.57801 54.4059 5.90918 54.0747 6.31793 54.0747C6.72668 54.0747 7.05785 54.4059 7.05785 54.8146V55.3607H7.60371C8.01246 55.3607 8.34363 55.6919 8.34363 56.1006C8.34363 56.5094 8.01246 56.8406 7.60371 56.8406H7.05785V57.3866C7.05785 57.7954 6.72668 58.1266 6.31793 58.1266C5.90918 58.1266 5.57801 57.7954 5.57801 57.3866V56.8406H5.03191C4.62316 56.8406 4.29199 56.5094 4.29199 56.1006C4.29199 55.6919 4.62316 55.3607 5.03191 55.3607V55.3607Z" fill="#70D6F9"/>
<path d="M34.395 1.58297C34.8321 1.58297 35.1865 1.22861 35.1865 0.791485C35.1865 0.35436 34.8321 0 34.395 0C33.9579 0 33.6035 0.35436 33.6035 0.791485C33.6035 1.22861 33.9579 1.58297 34.395 1.58297Z" fill="#87D147"/>
<path d="M7.91062 51.2705C8.34775 51.2705 8.7021 50.9161 8.7021 50.479C8.7021 50.0419 8.34775 49.6875 7.91062 49.6875C7.4735 49.6875 7.11914 50.0419 7.11914 50.479C7.11914 50.9161 7.4735 51.2705 7.91062 51.2705Z" fill="#FC657E"/>
<path d="M51.27 35.8017C51.7071 35.8017 52.0615 35.4474 52.0615 35.0102C52.0615 34.5731 51.7071 34.2188 51.27 34.2188C50.8329 34.2188 50.4785 34.5731 50.4785 35.0102C50.4785 35.4474 50.8329 35.8017 51.27 35.8017Z" fill="#F5C84C"/>
</svg>
